<svg viewBox="0 0 320 172" xmlns="http://www.w3.org/2000/svg">
<g fill="none" stroke="currentColor" stroke-width="2.5" stroke-linecap="round" opacity=".6">
<path class="ill-flow" d="M120 44H150M170 44H200"/>
<path class="ill-flow" d="M252 68V80M252 100V112"/>
<path class="ill-flow" d="M200 136H170M150 136H120"/>
</g>
<g class="ill-motion">
<circle r="5" fill="#00bfff">
<animateMotion path="M68 44H252V136H68" dur="7s" repeatCount="indefinite" calcMode="linear" keyPoints="0;.178;.178;.222;.478;.478;.522;.778;.778;.822;1" keyTimes="0;.12;.26;.29;.45;.55;.58;.74;.83;.86;1"/>
<animate attributeName="fill" dur="7s" repeatCount="indefinite" calcMode="discrete" values="#00bfff;#ff2600;#00bfff;#ff2600;#00bfff;#ff2600;#00bfff" keyTimes="0;.12;.26;.45;.55;.74;.83"/>
</circle>
</g>
<g stroke="currentColor" stroke-width="2.5" stroke-linecap="round" stroke-linejoin="round">
<rect class="ill-bg" x="16" y="20" width="104" height="48" rx="8"/>
<rect class="ill-bg" x="200" y="20" width="104" height="48" rx="8"/>
<rect class="ill-bg" x="200" y="112" width="104" height="48" rx="8"/>
<rect class="ill-bg" x="16" y="112" width="104" height="48" rx="8"/>
<path d="M16 34H120M200 34H304M200 126H304M16 126H120" opacity=".45"/>
</g>
<circle cx="26" cy="27" r="3" fill="#00bfff"/>
<circle cx="210" cy="27" r="3" fill="#22dd22"/>
<circle cx="210" cy="119" r="3" fill="#ffd500"/>
<circle cx="26" cy="119" r="3" fill="#c912ed"/>
<g class="ill-label" text-anchor="middle">
<text x="68" y="56">Ingest</text>
<text x="252" y="56">Transform</text>
<text x="252" y="148">Quality</text>
<text x="68" y="148">Governance</text>
</g>
<g fill="none" stroke="#ff2600" stroke-width="2.5" stroke-linecap="round">
<path d="M156 40l8 8M164 40l-8 8"/>
<path d="M248 86l8 8M256 86l-8 8"/>
<path d="M156 132l8 8M164 132l-8 8"/>
</g>
<g class="ill-note">
<text x="160" y="32" text-anchor="middle">API call</text>
<text x="264" y="93">export</text>
<text x="160" y="155" text-anchor="middle">re-ingest</text>
</g>
</svg>
