<?xml version="1.0" encoding="UTF-8" standalone="no"?><!DOCTYPE svg PUBLIC "-//W3C//DTD SVG 1.1//EN" "http://www.w3.org/Graphics/SVG/1.1/DTD/svg11.dtd"><svg width="100%" height="100%" viewBox="0 0 4961 4961" version="1.1" xmlns="http://www.w3.org/2000/svg" xmlns:xlink="http://www.w3.org/1999/xlink" xml:space="preserve" xmlns:serif="http://www.serif.com/" style="fill-rule:evenodd;clip-rule:evenodd;stroke-linejoin:round;stroke-miterlimit:2;"><path d="M2839.96,3316.065c-213.856,39.578 -703.327,-51.719 -976.455,-182.117c-285.174,-136.134 -473.696,-291.961 -691.09,-571.304c-39.578,-50.763 -39.483,-65.008 0.574,-225.711c56.882,-228.101 130.207,-416.241 233.55,-598.645c66.442,-117.396 78.296,-120.36 112.33,-28.298c38.335,103.821 95.6,193.589 157.261,246.647c108.792,93.401 281.732,177.72 425.514,207.356c40.534,8.413 96.364,23.518 124.184,33.651c87.091,31.643 257.737,76.289 335.842,87.761c122.368,18.068 301.808,-17.399 481.727,-95.122c35.563,-15.392 81.833,-33.364 102.865,-39.961c21.032,-6.692 74.09,-28.584 117.874,-48.66l79.539,-36.615c0,0 175.647,146.663 148.562,232.212c-37.264,117.697 -198.178,469.777 -256.398,527.806c-14.34,14.34 -19.98,12.524 -72.751,-23.518c-119.404,-81.547 -250.089,-123.037 -414.042,-131.736c-60.801,-3.155 -131.736,-2.581 -157.739,1.338l-47.226,7.074l28.584,22.848c15.774,12.524 54.492,36.519 86.04,53.249c31.548,16.634 59.463,33.364 62.14,36.997c2.677,3.633 19.885,14.244 38.24,23.518c87.474,44.167 313.089,181.735 332.209,202.48c25.334,27.533 27.055,59.845 6.501,120.36c-28.106,82.503 -133.457,155.445 -257.832,178.389Zm-139.002,833.629c-6.692,10.898 -84.223,13.288 -441.001,13.958c-600.653,0.956 -772.637,-5.449 -836.784,-31.261c-114.242,-45.983 -198.943,-112.33 -260.031,-203.723c-161.755,-241.58 -107.645,-526.563 125.905,-663.462c139.098,-81.451 329.819,-104.108 499.795,-59.176c197.7,52.102 378.575,167.586 545.683,348.078l58.22,62.905l66.059,-50.094c93.018,-70.553 204.488,-123.132 286.034,-134.891c116.536,-16.826 116.918,-16.73 121.029,34.225c3.537,44.836 -5.545,92.062 -39.578,204.297c-10.325,34.225 -40.917,153.055 -67.971,264.046c-27.055,111.087 -52.867,207.929 -57.36,215.099Zm1383.423,4.111c-10.898,7.648 -22.084,12.81 -24.856,11.568c-2.772,-1.243 -240.624,-3.442 -528.475,-4.876c-287.851,-1.434 -523.408,-6.214 -523.408,-10.803c0,-4.493 16.443,-19.024 36.615,-32.408c117.396,-77.627 228.961,-205.635 293.682,-336.798c62.522,-126.67 90.151,-240.242 97.034,-399.129c3.155,-72.273 9.56,-131.45 14.34,-131.45c37.953,0 278.004,165.101 379.818,261.178c23.996,22.753 54.587,48.373 67.876,57.073c23.231,15.2 25.812,14.627 66.92,-13.193c63.191,-42.733 160.034,-90.533 218.923,-108.028c66.824,-19.789 186.611,-21.319 179.249,-2.199c-2.772,7.266 -13.575,40.63 -23.996,74.09c-10.42,33.46 -28.393,82.407 -39.769,108.697c-11.472,26.29 -42.255,105.924 -68.354,176.859c-26.194,70.935 -55.448,146.268 -65.199,167.299c-9.656,21.032 -27.246,67.493 -39.1,103.248c-12.046,36.232 -30.305,71.126 -41.299,78.87Zm792.713,193.685c-11.376,7.457 -4742.987,9.178 -4794.802,1.816c-31.643,-4.493 -33.651,-6.979 -36.423,-45.41l-2.868,-40.63l4848.72,0l-2.294,38.813c-1.243,21.414 -6.788,41.873 -12.332,45.41Zm-1107.522,-1216.506c-52.197,35.467 -89.864,37.666 -147.606,8.604c-146.937,-73.803 -240.911,-301.521 -188.14,-456.297c34.32,-100.953 153.533,-185.941 274.18,-195.597c59.367,-4.78 61.375,-4.206 86.996,26.194c88.334,105.064 135.178,314.141 98.563,440.141c-17.399,60.132 -76.862,144.929 -123.993,176.955Zm-1604.449,-1383.041c-40.247,14.053 -44.645,13.575 -92.445,-11.185c-57.647,-29.732 -132.406,-107.358 -151.43,-157.261c-15.009,-39.291 -15.009,-45.505 -0.287,-92.349c21.701,-68.736 63.765,-129.251 135.943,-195.31c70.457,-64.625 166.152,-116.536 227.336,-123.419c82.407,-9.369 145.466,52.5 149.805,136.994c3.995,77.807 -78.807,271.811 -197.891,378.001c-31.181,27.804 -52.293,58.029 -71.031,64.53Zm1034.484,-8.891c-44.645,22.753 -63.191,23.709 -97.607,5.067c-38.909,-21.128 -173.131,-210.702 -232.307,-328.098c-53.918,-107.072 -37.666,-199.708 41.299,-235.366c78.87,-35.563 176.286,3.442 301.521,120.551c161.277,150.952 182.213,276.57 63.956,383.45c-21.223,19.216 -55.735,43.593 -76.862,54.396Zm-1505.313,-737.934c-28.967,56.117 -37.093,55.448 -95.695,-7.935c-82.981,-89.577 -96.747,-121.507 -96.269,-224.086c0.478,-96.938 15.774,-137.568 78.296,-206.687c98.468,-109.079 271.981,-124.662 387.37,-34.989c49.425,38.527 92.158,82.407 92.827,95.313c0.191,3.728 -30.783,30.114 -68.927,58.889c-38.144,28.68 -89.673,70.075 -114.528,91.967c-47.035,41.395 -158.409,179.823 -183.073,227.527Zm1832.359,-13.002c-12.81,15.392 -33.077,35.563 -45.027,45.027l-21.797,17.112l-53.536,-78.487c-76.671,-112.234 -156.879,-196.84 -260.414,-274.658c-89.864,-67.589 -90.246,-67.971 -77.053,-93.496c32.313,-62.522 163.762,-134.987 245.404,-135.465c179.441,-0.86 332.018,165.005 304.963,331.54c-8.7,53.44 -50.094,137.664 -92.54,188.427Zm211.562,3556.117c-20.745,8.03 -1959.029,7.457 -1966.963,-0.574c-3.537,-3.442 -6.405,-22.848 -6.405,-43.02l0,-36.615l1988.473,0l0,37.188c0,25.143 -4.876,39.1 -15.105,43.02Zm-482.492,192.92c-9.751,11.663 -122.559,13.671 -768.717,13.671c-416.432,0 -760.113,-2.868 -763.555,-6.405c-3.537,-3.442 -6.405,-25.047 -6.405,-47.8l0,-41.49l1543.935,4.876l3.059,31.739c1.625,17.399 -2.103,37.857 -8.317,45.41Zm-65.868,-1248.341c-21.414,63 -39.387,101.049 -48.373,102.387c-16.73,2.486 -162.519,-70.266 -162.519,-81.164c0,-4.015 17.686,-30.879 39.291,-59.654c55.161,-73.229 176.095,-323.605 202.002,-417.866c11.854,-43.402 26.672,-78.87 32.791,-78.87c11.854,-0.096 133.457,62.14 153.915,78.774c9.751,7.839 8.891,14.914 -4.302,34.798c-110.513,166.726 -158.695,262.23 -212.805,421.595Zm602.947,-1245.09c-6.31,22.37 -16.73,40.439 -23.135,40.152c-19.694,-0.86 -159.747,-75.715 -159.747,-85.371c0,-5.067 21.128,-40.534 46.939,-78.774c63.669,-94.452 135.274,-240.146 177.146,-360.698c19.12,-54.97 36.041,-101.336 37.666,-102.865c7.266,-7.266 130.398,56.213 138.142,71.222c17.399,33.555 10.898,50.668 -61.279,160.225c-32.504,49.329 -135.178,284.122 -155.732,356.109Zm-897.585,1880.924c-4.78,15.774 -14.722,29.732 -22.179,31.07c-17.59,3.059 -75.715,-34.416 -75.619,-48.756c0.096,-22.753 76.862,-301.713 109.366,-397.695c18.642,-54.874 33.938,-107.55 33.938,-117.11c0,-27.437 32.408,-20.841 107.836,21.892c37.953,21.51 70.553,40.63 72.465,42.446c1.912,1.912 -9.942,23.231 -26.29,47.417c-16.348,24.282 -29.732,46.461 -29.732,49.329c0,2.868 -8.413,17.017 -18.738,31.452c-30.592,43.02 -80.877,144.547 -104.49,210.893c-12.141,34.225 -25.621,70.744 -29.923,81.26c-4.398,10.516 -11.854,32.026 -16.634,47.8Zm-188.714,-2146.882c-36.615,21.414 -69.023,38.909 -72.082,38.909c-8.986,0 -184.794,-105.542 -202.767,-121.698c-19.024,-17.112 -22.466,-64.817 -5.449,-75.333c6.214,-3.824 96.46,-7.935 200.568,-8.986c199.134,-2.103 215.004,0.765 222.652,40.917c4.971,25.716 -42.159,67.302 -142.922,126.192Zm1359.134,243.357c-79.132,23.09 -201.135,36.559 -201.135,36.559c0,0 81.929,-92.349 152.099,-131.641c125.14,-69.979 362.452,-111.462 362.452,-111.462c0,0 -158.806,161.429 -313.416,206.543Zm323.134,312.269c0,0 -145.503,1.53 -260.987,-38.718c-95.026,-33.173 -165.579,-73.707 -223.416,-128.39l-41.108,-38.909l34.416,-2.868c68.258,-5.736 217.68,32.982 309.265,80.113c99.041,50.955 181.831,128.773 181.831,128.773Zm-757.436,-98.563c-119.404,36.615 -121.316,36.806 -112.616,15.87c15.965,-38.24 52.962,-158.122 52.962,-171.506c0,-7.648 6.979,-13.958 15.583,-13.958c23.04,0 166.057,78.392 166.057,91.011c0,23.709 -51.815,57.169 -121.985,78.583Zm-657.152,-946.341c74.185,63.861 175.139,-38.144 108.314,-109.366c-30.687,-32.599 -97.034,-31.357 -119.117,2.294c-23.613,36.137 -19.12,81.355 10.803,107.072Zm-773.879,0c35.181,30.879 73.612,28.011 103.821,-7.935c31.07,-36.901 31.452,-69.883 1.338,-100.093c-51.719,-51.624 -148.371,-11.568 -135.369,56.117c3.155,16.73 16.826,40.056 30.209,51.911Zm1170.618,1452.159c0,6.788 -15.296,1.721 -54.97,-18.26c-46.366,-23.326 -49.521,-33.651 -18.738,-62.618c21.128,-19.789 22.562,-19.885 36.806,-3.25c12.046,14.053 36.901,70.744 36.901,84.128Z" style="fill:#24444e;fill-rule:nonzero;"/><path d="M1478.238,315c6.214,0 -53.44,451.613 -57.073,453.812c-6.883,4.206 -468.821,-225.042 -468.821,-225.042c0,0 520.253,-228.77 525.894,-228.77Z" style="fill:#f17c21;fill-rule:nonzero;"/></svg>