<?xml version="1.0" encoding="UTF-8" standalone="no"?><!DOCTYPE svg PUBLIC "-//W3C//DTD SVG 1.1//EN" "http://www.w3.org/Graphics/SVG/1.1/DTD/svg11.dtd"><svg width="100%" height="100%" viewBox="0 0 2382 2382" version="1.1" xmlns="http://www.w3.org/2000/svg" xmlns:xlink="http://www.w3.org/1999/xlink" xml:space="preserve" xmlns:serif="http://www.serif.com/" style="fill-rule:evenodd;clip-rule:evenodd;stroke-linejoin:round;stroke-miterlimit:2;"><path d="M1295.31,1855.79c-132.24,24.47 -434.92,-31.98 -603.82,-112.62c-176.35,-84.18 -292.92,-180.54 -427.36,-353.28c-24.47,-31.39 -24.42,-40.2 0.35,-139.57c35.17,-141.05 80.52,-257.39 144.42,-370.19c41.09,-72.6 48.42,-74.43 69.46,-17.5c23.71,64.2 59.12,119.71 97.25,152.52c67.27,57.76 174.22,109.9 263.13,128.22c25.07,5.2 59.59,14.54 76.79,20.81c53.86,19.57 159.38,47.18 207.68,54.27c75.67,11.17 186.63,-10.76 297.89,-58.82c21.99,-9.52 50.6,-20.63 63.61,-24.71c13.01,-4.14 45.82,-17.68 72.89,-30.09l49.19,-22.64c0,0 108.62,90.69 91.87,143.59c-23.04,72.78 -122.55,290.5 -158.55,326.38c-8.87,8.87 -12.36,7.74 -44.99,-14.54c-73.84,-50.43 -154.65,-76.08 -256.03,-81.46c-37.6,-1.95 -81.46,-1.6 -97.54,0.83l-29.2,4.37l17.68,14.13c9.75,7.74 33.7,22.58 53.21,32.93c19.51,10.29 36.77,20.63 38.43,22.88c1.66,2.25 12.3,8.81 23.65,14.54c54.09,27.31 193.61,112.38 205.43,125.21c15.67,17.03 16.73,37.01 4.02,74.43c-17.38,51.02 -82.53,96.12 -159.44,110.31Zm-85.96,515.5c-4.14,6.74 -52.08,8.22 -272.71,8.63c-371.43,0.59 -477.78,-3.37 -517.45,-19.33c-70.64,-28.44 -123.02,-69.46 -160.8,-125.98c-100.03,-149.39 -66.57,-325.62 77.86,-410.27c86.01,-50.37 203.95,-64.38 309.06,-36.59c122.25,32.22 234.1,103.63 337.44,215.24l36,38.9l40.85,-30.98c57.52,-43.63 126.45,-76.14 176.88,-83.41c72.06,-10.4 72.3,-10.35 74.84,21.16c2.19,27.73 -3.43,56.93 -24.47,126.33c-6.38,21.16 -25.3,94.65 -42.03,163.28c-16.73,68.69 -32.69,128.58 -35.47,133.01Zm855.48,2.54c-6.74,4.73 -13.66,7.92 -15.37,7.15c-1.71,-0.77 -148.8,-2.13 -326.8,-3.01c-178,-0.89 -323.66,-3.84 -323.66,-6.68c0,-2.78 10.17,-11.76 22.64,-20.04c72.6,-48 141.58,-127.16 181.61,-208.27c38.66,-78.33 55.75,-148.56 60,-246.81c1.95,-44.69 5.91,-81.29 8.87,-81.29c23.47,0 171.91,102.09 234.87,161.51c14.84,14.07 33.76,29.91 41.97,35.29c14.37,9.4 15.96,9.04 41.38,-8.16c39.08,-26.43 98.96,-55.98 135.38,-66.8c41.32,-12.24 115.4,-13.18 110.84,-1.36c-1.71,4.49 -8.39,25.12 -14.84,45.82c-6.44,20.69 -17.56,50.96 -24.59,67.22c-7.09,16.26 -26.13,65.5 -42.27,109.37c-16.2,43.86 -34.29,90.45 -40.32,103.45c-5.97,13.01 -16.85,41.74 -24.18,63.85c-7.45,22.41 -18.74,43.98 -25.54,48.77Zm-194.67,-632.49c-32.28,21.93 -55.57,23.29 -91.28,5.32c-90.86,-45.64 -148.97,-186.45 -116.34,-282.16c21.22,-62.43 94.94,-114.98 169.55,-120.95c36.71,-2.96 37.95,-2.6 53.8,16.2c54.62,64.97 83.59,194.26 60.95,272.17c-10.76,37.18 -47.53,89.62 -76.67,109.43Zm-992.16,-855.24c-24.89,8.69 -27.61,8.39 -57.17,-6.92c-35.65,-18.39 -81.88,-66.39 -93.64,-97.25c-9.28,-24.3 -9.28,-28.14 -0.18,-57.11c13.42,-42.5 39.43,-79.93 84.06,-120.78c43.57,-39.96 102.74,-72.06 140.58,-76.32c50.96,-5.79 89.95,32.46 92.64,84.71c2.47,48.11 -48.73,168.08 -122.37,233.75c-19.28,17.19 -32.34,35.88 -43.92,39.9Zm639.7,-5.5c-27.61,14.07 -39.08,14.66 -60.36,3.13c-24.06,-13.06 -107.06,-130.29 -143.65,-202.89c-33.34,-66.21 -23.29,-123.49 25.54,-145.55c48.77,-21.99 109.01,2.13 186.45,74.55c99.73,93.35 112.68,171.02 39.55,237.12c-13.12,11.88 -34.47,26.96 -47.53,33.64Zm-930.85,-456.32c-17.91,34.7 -22.94,34.29 -59.18,-4.91c-51.31,-55.39 -59.83,-75.14 -59.53,-138.57c0.3,-59.94 9.75,-85.07 48.42,-127.81c60.89,-67.45 168.19,-77.09 239.54,-21.64c30.56,23.82 56.99,50.96 57.4,58.94c0.12,2.31 -19.04,18.62 -42.62,36.42c-23.59,17.74 -55.45,43.33 -70.82,56.87c-29.09,25.6 -97.96,111.2 -113.21,140.7Zm1133.09,-8.04c-7.92,9.52 -20.45,21.99 -27.84,27.84l-13.48,10.58l-33.11,-48.53c-47.41,-69.4 -97.01,-121.72 -161.03,-169.84c-55.57,-41.8 -55.81,-42.03 -47.65,-57.82c19.98,-38.66 101.27,-83.47 151.75,-83.77c110.96,-0.53 205.31,102.04 188.58,205.02c-5.38,33.05 -30.98,85.13 -57.23,116.52Zm-208.27,1546.38c-13.24,38.96 -24.36,62.49 -29.91,63.31c-10.35,1.54 -100.5,-43.45 -100.5,-50.19c0,-2.48 10.94,-19.09 24.3,-36.89c34.11,-45.28 108.89,-200.11 124.91,-258.4c7.33,-26.84 16.49,-48.77 20.28,-48.77c7.33,-0.06 82.53,38.43 95.18,48.71c6.03,4.85 5.5,9.22 -2.66,21.52c-68.34,103.1 -98.13,162.16 -131.59,260.71Zm372.85,-769.94c-3.9,13.83 -10.35,25.01 -14.31,24.83c-12.18,-0.53 -98.78,-46.82 -98.78,-52.79c0,-3.13 13.06,-25.07 29.03,-48.71c39.37,-58.41 83.65,-148.5 109.54,-223.05c11.82,-33.99 22.29,-62.66 23.29,-63.61c4.49,-4.49 80.64,34.76 85.42,44.04c10.76,20.75 6.74,31.33 -37.89,99.08c-20.1,30.5 -83.59,175.7 -96.3,220.21Zm-555.05,1163.12c-2.96,9.75 -9.1,18.39 -13.72,19.21c-10.88,1.89 -46.82,-21.28 -46.76,-30.15c0.06,-14.07 47.53,-186.57 67.63,-245.93c11.53,-33.93 20.99,-66.51 20.99,-72.42c0,-16.97 20.04,-12.89 66.68,13.54c23.47,13.3 43.63,25.12 44.81,26.25c1.18,1.18 -6.15,14.37 -16.26,29.32c-10.11,15.02 -18.39,28.73 -18.39,30.5c0,1.77 -5.2,10.52 -11.59,19.45c-18.92,26.6 -50.01,89.38 -64.61,130.41c-7.51,21.16 -15.84,43.75 -18.5,50.25c-2.72,6.5 -7.33,19.8 -10.29,29.56Zm-116.7,-1327.59c-22.64,13.24 -42.68,24.06 -44.57,24.06c-5.56,0 -114.27,-65.26 -125.39,-75.26c-11.76,-10.58 -13.89,-40.08 -3.37,-46.58c3.84,-2.36 59.65,-4.91 124.03,-5.56c123.14,-1.3 132.95,0.47 137.68,25.3c3.07,15.9 -26.07,41.62 -88.38,78.03Zm892.96,128.81c-17.17,8.95 -34.88,16.54 -52.5,21.68c-48.93,14.28 -124.38,22.61 -124.38,22.61c0,0 50.66,-57.11 94.05,-81.4c77.38,-43.27 224.13,-68.93 224.13,-68.93m6.01,320.82c0,0 -89.98,0.95 -161.39,-23.94c-58.76,-20.51 -102.39,-45.58 -138.16,-79.39l-25.42,-24.06l21.28,-1.77c42.21,-3.55 134.61,20.4 191.24,49.54c61.25,31.51 112.44,79.63 112.44,79.63Zm-468.38,-60.95c-73.84,22.64 -75.02,22.76 -69.64,9.81c9.87,-23.65 32.75,-97.78 32.75,-106.06c0,-4.73 4.32,-8.63 9.64,-8.63c14.25,0 102.69,48.48 102.69,56.28c0,14.66 -32.04,35.35 -75.43,48.59Zm-406.37,-585.2c45.87,39.49 108.3,-23.59 66.98,-67.63c-18.98,-20.16 -60,-19.39 -73.66,1.42c-14.6,22.35 -11.82,50.31 6.68,66.21Zm-478.55,0c21.75,19.09 45.52,17.32 64.2,-4.91c19.21,-22.82 19.45,-43.21 0.83,-61.9c-31.98,-31.92 -91.75,-7.15 -83.71,34.7c1.95,10.35 10.4,24.77 18.68,32.1Zm723.89,897.98c0,4.2 -9.46,1.06 -33.99,-11.29c-28.67,-14.42 -30.62,-20.81 -11.59,-38.72c13.06,-12.24 13.95,-12.3 22.76,-2.01c7.45,8.69 22.82,43.75 22.82,52.02Z" style="fill:#24444e;fill-rule:nonzero;"/><path d="M2105.74,1157.02c-17.17,8.95 -34.88,16.54 -52.5,21.68c-48.93,14.28 -124.38,22.61 -124.38,22.61c0,0 50.66,-57.11 94.05,-81.4c77.38,-43.27 224.13,-68.93 224.13,-68.93m6.01,320.82c0,0 -89.98,0.95 -161.39,-23.94c-58.76,-20.51 -102.39,-45.58 -138.16,-79.39l-25.42,-24.06l21.28,-1.77c42.21,-3.55 134.61,20.4 191.24,49.54c61.25,31.51 112.44,79.63 112.44,79.63Z" style="fill:#4ef440;fill-rule:nonzero;"/><path d="M453.25,0c3.84,0 -33.05,279.27 -35.29,280.63c-4.26,2.6 -289.91,-139.16 -289.91,-139.16c0,0 321.71,-141.47 325.2,-141.47Z" style="fill:#f17c21;fill-rule:nonzero;"/></svg>