<?xml version="1.0" encoding="UTF-8" standalone="no"?><!DOCTYPE svg PUBLIC "-//W3C//DTD SVG 1.1//EN" "http://www.w3.org/Graphics/SVG/1.1/DTD/svg11.dtd"><svg width="100%" height="100%" viewBox="0 0 16300 5906" version="1.1" xmlns="http://www.w3.org/2000/svg" xmlns:xlink="http://www.w3.org/1999/xlink" xml:space="preserve" xmlns:serif="http://www.serif.com/" style="fill-rule:evenodd;clip-rule:evenodd;stroke-linejoin:round;stroke-miterlimit:2;"><rect x="0" y="0" width="16299.212598425" height="5905.511811024" style="fill:#fff;"/><g><path d="M3101.490847762,4002.728152408c-223.106508865,41.290163017 -733.748138452,-53.956469064 -1018.69015715,-189.994590696c-297.508590051,-142.022203229 -494.185405197,-304.589753274 -720.982097713,-596.014527034c-41.290163017,-52.959122131 -41.190428324,-67.81959143 0.59840816,-235.473610831c59.342142501,-237.966978163 135.838652246,-434.244854536 243.65185568,-624.538649312c69.315611829,-122.474203346 81.682713795,-125.565978838 117.188264603,-29.521469211c39.993612005,108.311876901 99.734693279,201.96275389 164.063570444,257.315508659c113.498080951,97.440795333 293.918141093,185.406794805 443.919119784,216.324549722c42.28750995,8.776653009 100.532570825,24.534734547 129.555366569,35.106612034c90.858305577,33.012183475 268.88473308,79.588285237 350.367977489,91.55644843c127.660407397,18.84985703 314.862426681,-18.151714177 502.563119432,-99.236019812c37.1013059,-16.057285618 85.372897447,-34.807407954 107.314529968,-41.689101791c21.941632521,-6.98142853 77.294387291,-29.82067329 122.972876813,-50.764958879l82.979264808,-38.198387526l34.109265101,37.1013059c18.750122336,20.445612122 34.109265101,41.98830587 34.208999795,48.07212216c0,5.984081597 8.976122395,18.949591723 19.847203962,28.823326358c33.311387555,30.219612063 72.307652627,104.920897329 66.822244497,128.258815557c-29.521469211,125.366509451 -206.750019167,490.096282772 -267.488447374,550.635241592c-14.960203992,14.960203992 -20.844550895,13.06524482 -75.898101585,-24.534734547c-124.568631905,-85.073693367 -260.905957617,-128.35855025 -431.950956591,-137.434407338c-63.431264925,-3.291244878 -137.434407338,-2.692836719 -164.56224391,1.396285706l-49.26893848,7.380367303l29.82067329,23.836591694c16.456224391,13.06524482 56.848775169,38.098652833 89.761223951,55.552224156c32.912448782,17.353836631 62.034979219,34.807407954 64.827550631,38.597326299c2.792571412,3.789918345 20.744816202,14.860469299 39.893877312,24.534734547c91.25724435,46.077428295 326.631120488,189.595651923 346.578059144,211.238080365c26.429693719,28.723591664 28.224918198,62.433917993 6.781959143,125.565978838c-29.321999824,86.0710403 -139.229631817,162.168611271 -268.984467773,186.104937658Zm-145.014244027,869.686525391c-6.98142853,11.369755034 -87.866264779,13.863122366 -460.076140095,14.561265219c-626.633077871,0.997346933 -806.05579108,-5.684877517 -872.97777027,-32.613244702c-119.182958468,-47.972387467 -207.547896713,-117.188264603 -271.278365718,-212.534631377c-168.751101028,-252.029569916 -112.301264632,-549.33869058 131.350591048,-692.158771355c145.113978721,-84.973958674 344.084691812,-108.611080981 521.412976462,-61.73577514c206.251345701,54.355407837 394.949385384,174.834917318 569.285629236,363.134018228l60.738428207,65.625428177l68.916673056,-52.260979278c97.04185656,-73.60420364 213.332508923,-128.458284943 298.40620229,-140.725652216c121.576591107,-17.553306017 121.97552988,-17.453571324 126.264121691,35.705020194c3.690183651,46.775571148 -5.78461221,96.044509628 -41.290163017,213.133039537c-10.771346874,35.705020194 -42.686448723,159.675243939 -70.911366921,275.467222836c-28.224918198,115.89171359 -55.153285383,216.922957881 -59.840815967,224.403059877Zm1443.260746438,4.288591811c-11.369755034,7.978775462 -23.038714147,13.364448899 -25.931020252,12.067897887c-2.892306105,-1.296551013 -251.032222983,-3.590448958 -551.333384445,-5.086469357c-300.301161463,-1.496020399 -546.047445702,-6.482755063 -546.047445702,-11.270020341c0,-4.687530584 17.154367244,-19.847203962 38.198387526,-33.810061022c122.474203346,-80.984570942 238.864590403,-214.529325243 306.384977753,-351.365324421c65.226489404,-132.148468594 94.049815762,-250.63328421 101.230713678,-416.392344439c3.291244878,-75.399428119 9.973469328,-137.135203258 14.960203992,-137.135203258c39.594673232,0 290.028488055,172.241815293 396.245936397,272.475182038c25.033408013,23.736857 56.948509862,50.465754799 70.811632228,59.541611887c24.235530467,15.857816231 26.928367185,15.259408072 69.814285295,-13.763387672c65.924632257,-44.581407896 166.955876549,-94.448754535 228.392447609,-112.700203405c69.714550602,-20.645081509 194.68212128,-22.240836601 187.002549898,-2.293897945c-2.892306105,7.579836689 -14.162326446,42.387244644 -25.033408013,77.294387291c-10.871081567,34.907142648 -29.621203904,85.971305606 -41.489632404,113.398346258c-11.968163193,27.427040652 -44.082734429,110.506040153 -71.310305694,184.509182566c-27.327305958,74.003142413 -57.846122102,152.594080717 -68.019060816,174.535713238c-10.073204021,21.941632521 -28.424387584,70.412693455 -40.791489551,107.713468741c-12.566571353,37.799448753 -31.615897769,74.202611799 -43.085387496,82.281121955Zm827.000076668,202.062488583c-11.8684285,7.779306076 -4948.137337643,9.574530555 -5002.1935414,1.894959172c-33.012183475,-4.687530584 -35.106612034,-7.280632609 -37.998918139,-47.373979307l-2.992040798,-42.387244644l5058.443908409,0l-2.393632639,40.492285471c-1.296551013,22.340571294 -7.081163223,43.683795656 -12.865775433,47.373979307Zm-1155.426421635,-1269.123971973c-54.45514253,37.001571206 -93.750611682,39.295469152 -153.990366423,8.976122395c-153.29222357,-76.995183211 -251.331427063,-314.563222601 -196.277876373,-476.03369102c35.804754887,-105.319836102 160.173917406,-193.983978427 286.039100324,-204.057182448c61.935244526,-4.986734664 64.029673085,-4.388326504 90.758570884,27.327305958c92.15485659,109.608427913 141.024856296,327.728202114 102.82646877,459.178527856c-18.151714177,62.733122072 -80.186693396,151.197795011 -129.355897183,184.608917259Zm-1673.847357299,-1442.861807665c-41.98830587,14.660999912 -46.576101761,14.162326446 -96.443448401,-11.668959114c-60.140020047,-31.01748961 -138.132550191,-112.002060552 -157.979754154,-164.063570444c-15.658346845,-40.990958938 -15.658346845,-47.473714001 -0.29920408,-96.343713707c22.639775374,-71.709244467 66.523040417,-134.841305313 141.822733842,-203.757978369c73.504468946,-67.420652656 173.338896919,-121.576591107 237.169100617,-128.757489023c85.971305606,-9.773999941 156.284264368,54.654611917 156.284264368,142.919815469c0,48.869999707 -41.489632404,150.798856238 -83.976611741,206.55054978c-14.162326446,18.55065295 -25.731550866,37.500244673 -25.731550866,42.187775257c0,10.272673408 -39.195734459,69.215877136 -96.74265248,145.612652187c-26.230224332,34.807407954 -54.554877224,60.53895882 -74.102877106,67.320917963Zm1079.22911597,-9.275326475c-46.576101761,23.736857 -65.924632257,24.734203933 -101.829121838,5.285938744c-40.592020164,-22.041367215 -180.619529528,-219.815263987 -242.355304668,-342.289467333c-56.250367009,-111.702856472 -39.295469152,-208.345774259 43.085387496,-245.546814852c82.281121955,-37.1013059 183.910774406,3.590448958 314.563222601,125.765448225c168.252427561,157.481080687 190.094325389,288.532467656 66.722509804,400.035854741c-22.141101908,20.046673349 -58.145326182,45.479020135 -80.186693396,56.749040476Zm-1570.422480368,-769.852097419c-30.219612063,58.544264955 -38.697060992,57.846122102 -99.834427972,-8.277979542c-86.569713766,-93.451407602 -100.931509598,-126.762795157 -100.432836132,-233.778121046c0.498673466,-101.130978985 16.456224391,-143.518223628 81.682713795,-215.626406869c102.726734077,-113.797285031 283.745202378,-130.054040036 404.124977166,-36.50289774c51.562836425,40.193081391 96.144244321,85.971305606 96.842387174,99.435489199c0.199469387,3.889653038 -32.114571236,31.416428383 -71.908713854,61.43657106c-39.794142618,29.920407984 -93.551142296,73.105530173 -119.482162548,95.944774934c-49.069469093,43.18512219 -165.260386763,187.600958057 -190.991937629,237.368570004Zm1911.614866075,-13.563918286c-13.364448899,16.057285618 -34.508203874,37.1013059 -46.975040534,46.975040534l-22.739510068,17.852510097l-55.851428236,-81.882183182c-79.98722401,-117.088529909 -163.664631671,-205.353733461 -271.677304492,-286.53777379c-93.750611682,-70.512428148 -94.149550455,-70.911366921 -80.386162783,-97.540530027c33.710326328,-65.226489404 170.845529587,-140.82538691 256.018957647,-141.324060376c187.202019284,-0.89761224 346.378589757,172.142080599 318.153671559,345.879916291c-9.075857088,55.751693543 -52.260979278,143.617958322 -96.543183094,196.577080453Zm220.712876226,3709.931120586c-21.642428442,8.377714235 -2043.76333467,7.779306076 -2052.041314212,-0.59840816c-3.690183651,-3.590448958 -6.68222445,-23.836591694 -6.68222445,-44.880611975l0,-38.198387526l2074.4816202,0l0,38.796795685c0,26.230224332 -5.086469357,40.791489551 -15.758081538,44.880611975Zm-503.360996978,201.264611037c-10.172938714,12.16763258 -127.859876783,14.262061139 -801.966668655,14.262061139c-434.444323923,0 -792.99054626,-2.992040798 -796.580995218,-6.68222445c-3.690183651,-3.590448958 -6.68222445,-26.130489639 -6.68222445,-49.867346639l0,-43.284856883l1610.715296453,5.086469357l3.191510185,33.111918169c1.695489786,18.151714177 -2.194163252,39.494938538 -8.676918315,47.373979307Zm-68.717203669,-1302.335624835c-22.340571294,65.725162871 -41.090693631,105.419570796 -50.465754799,106.815856502c-17.453571324,2.593102025 -169.548978574,-73.30499956 -169.548978574,-84.674754594c0,-4.188857118 18.450918257,-32.214305929 40.990958938,-62.234448606c57.546918022,-76.396775052 183.71130502,-337.601936749 210.739406898,-435.940344322c12.367101967,-45.279550749 27.825979425,-82.281121955 34.208999795,-82.281121955c12.367101967,-0.099734693 139.229631817,64.827550631 160.572856179,82.181387262c10.172938714,8.178244849 9.275326475,15.558612151 -4.488061198,36.303428353c-115.29330543,173.937305078 -165.559590843,273.572263664 -222.009427239,439.82999736Zm629.02671051,-1298.944645263c-6.582489756,23.337918227 -17.453571324,42.187775257 -24.135795773,41.888571177c-20.545346815,-0.89761224 -166.656672469,-78.989877077 -166.656672469,-89.063081098c0,-5.285938744 22.041367215,-42.28750995 48.9697344,-82.181387262c66.423305724,-98.537876959 141.12459099,-250.533549516 184.808386646,-376.298997741c19.946938656,-57.347448635 37.599979366,-105.718774876 39.295469152,-107.314529968c7.579836689,-7.579836689 136.038121632,58.643999648 144.116631788,74.302346493c18.151714177,35.006877341 11.369755034,52.859387438 -63.929938392,167.155345935c-33.909795715,51.463101732 -141.024856296,296.411508425 -162.467815351,371.511732464Zm-936.409035195,1962.280090261c-4.986734664,16.456224391 -15.359142765,31.01748961 -23.138448841,32.413775316c-18.351183563,3.191510185 -78.989877077,-35.90448958 -78.890142384,-50.864693572c0.099734693,-23.736857 80.186693396,-314.762691988 114.096489111,-414.89632404c19.448265189,-57.247713942 35.405816114,-112.201529939 35.405816114,-122.174999267c0,-28.623856971 33.810061022,-21.742163135 112.500734019,22.839244761c39.594673232,22.440305988 73.60420364,42.387244644 75.598897505,44.282203816c1.994693866,1.994693866 -10.372408101,24.235530467 -27.427040652,49.468407866c-17.054632551,25.332612093 -31.01748961,48.471060934 -31.01748961,51.463101732c0,2.992040798 -8.776653009,17.752775404 -19.547999883,32.812714089c-31.915101849,44.880611975 -84.375550514,150.798856238 -109.010019754,220.014733373c-12.666306046,35.705020194 -26.728897799,73.803673026 -31.216958996,84.774489287c-4.587795891,10.970816261 -12.367101967,33.411122248 -17.353836631,49.867346639Zm-196.876284532,-2239.742006963c-38.198387526,22.340571294 -72.008448547,40.592020164 -75.199958732,40.592020164c-9.375061168,0 -192.787162108,-110.10710138 -211.537284444,-126.962264544c-19.847203962,-17.852510097 -23.437652921,-67.620122043 -5.684877517,-78.590938304c6.482755063,-3.989387731 100.632305518,-8.277979542 209.243386499,-9.375061168c207.7473661,-2.194163252 224.303325184,0.797877546 232.282100646,42.686448723c5.18620405,26.828632492 -43.982999736,70.213224068 -149.103366452,131.649795128Zm1755.031397628,579.658037337c-13.663652979,22.141101908 -151.79620317,1.595755092 -272.275712651,-40.392550778c-99.136285119,-34.607938568 -172.740488759,-76.895448518 -233.079978193,-133.943693073l-42.88591811,-40.592020164l35.90448958,-2.992040798c71.210571001,-5.984081597 227.095896596,34.408469181 322.641732757,83.577672968c103.325142237,53.158591518 198.272570238,120.479509481 189.695386616,134.342631847Zm-790.197974848,-102.82646877c-124.568631905,38.198387526 -126.563325771,38.397856912 -117.487468682,16.555959084c16.655693778,-39.893877312 55.253020076,-164.961182683 55.253020076,-178.924039742c0,-7.978775462 7.280632609,-14.561265219 16.256755004,-14.561265219c24.03606108,0 173.239162225,81.782448489 173.239162225,94.947428001c0,24.734203933 -54.056203757,59.641346581 -127.261468624,81.981917875Zm-685.576281599,-987.273728767c77.394121984,66.62277511 182.713958087,-39.794142618 112.999407485,-114.096489111c-32.014836543,-34.009530408 -101.230713678,-32.712979395 -124.269427825,2.393632639c-24.63446924,37.699714059 -19.946938656,84.87422398 11.270020341,111.702856472Zm-807.352342092,0c36.702367127,32.214305929 76.795713825,29.222265131 108.311876901,-8.277979542c32.413775316,-38.497591606 32.812714089,-72.906060787 1.396285706,-104.422223863c-53.956469064,-53.856734371 -154.788243969,-12.067897887 -141.224325683,58.544264955c3.291244878,17.453571324 17.553306017,41.788836484 31.516163076,54.15593845Zm1221.251319199,1514.969990905c0,7.081163223 -15.957550925,1.795224479 -57.347448635,-19.049326416c-48.37132624,-24.33526516 -51.662571118,-35.106612034 -19.547999883,-65.326224098c22.041367215,-20.645081509 23.537387614,-20.744816202 38.397856912,-3.390979571c12.566571353,14.660999912 38.497591606,73.803673026 38.497591606,87.766530085Z" style="fill:#24444e;fill-rule:nonzero;"/><path d="M1634.892183097,1278.475005497c-3.690183651,34.408469181 -9.773999941,64.528346551 -13.563918286,66.822244497c-7.180897916,4.388326504 -447.709038129,-207.049223247 -489.098935839,-234.775467978c-22.639775374,-15.059938685 -14.361795832,-19.248795803 257.315508659,-127.161733931c154.289570502,-61.336836366 285.440692164,-111.503387086 291.325039067,-111.503387086c6.482755063,0 8.577183622,12.666306046 5.18620405,32.413775316c-9.674265248,57.846122102 -44.182469123,309.975426711 -51.163897652,374.204569182Z" style="fill:#f56c6c;fill-rule:nonzero;"/></g><path d="M4493.943589876,2810.061520077c-31.480507548,16.40946666 -63.951083475,30.325427772 -96.256648006,39.749411976c-89.711195941,26.181808258 -228.045750075,41.454529741 -228.045750075,41.454529741c0,0 92.883081675,-104.70889843 172.436909427,-149.243640908c141.87313186,-79.333812556 410.933381285,-126.380395181 410.933381285,-126.380395181m11.019094372,588.210625012c0,0 -164.974727382,1.741786964 -295.902103269,-43.893031491c-107.734107368,-37.604263821 -187.72796551,-83.569105068 -253.310828351,-145.558386384l-46.606552234,-44.113046686l39.016027992,-3.245224133c77.390344996,-6.508782865 246.802045486,37.402583225 350.630883135,90.829606518c112.299422673,57.772323403 206.154238128,145.998416775 206.154238128,145.998416775l0.0183346,-0.0183346Z" style="fill:#13ce66;fill-rule:nonzero;"/></svg>