<?xml version="1.0" encoding="UTF-8" standalone="no"?><!DOCTYPE svg PUBLIC "-//W3C//DTD SVG 1.1//EN" "http://www.w3.org/Graphics/SVG/1.1/DTD/svg11.dtd"><svg width="100%" height="100%" viewBox="0 0 17717 5906" version="1.1" xmlns="http://www.w3.org/2000/svg" xmlns:xlink="http://www.w3.org/1999/xlink" xml:space="preserve" xmlns:serif="http://www.serif.com/" style="fill-rule:evenodd;clip-rule:evenodd;stroke-linejoin:round;stroke-miterlimit:2;"><rect x="0" y="-1.961224" width="17716.535433" height="5907.473035" style="fill:#fff;"/><path d="M3469.940572,3884.618556c-254.464935,47.093645 -836.879091,-61.540246 -1161.870741,-216.699017c-339.324498,-161.983937 -563.64495,-347.400944 -822.318737,-679.786523c-47.093645,-60.402718 -46.979892,-77.35188 0.682517,-268.570278c67.682895,-271.414097 154.931266,-495.279538 277.898005,-712.319814c79.058172,-139.688395 93.163514,-143.214731 133.659499,-33.670818c45.614859,123.535503 113.752765,230.349349 187.123298,293.482133c129.450646,111.136451 335.229398,211.46639 506.313557,246.729747c48.231172,10.010243 114.662787,27.98318 147.764842,40.040973c103.628769,37.652165 306.677454,90.774706 399.613463,104.425038c145.603539,21.499273 359.117479,-20.703003 573.200182,-113.184001c42.316029,-18.314195 97.372367,-39.699715 122.397975,-47.548656c25.025608,-7.962694 88.158393,-34.012077 140.257159,-57.900157l94.6423,-43.567309l38.903446,42.316029c21.38552,23.319317 38.903446,47.889914 39.017198,54.828833c0,6.825166 10.237749,21.613025 22.6368,32.874549c37.993423,34.467088 82.470755,119.667909 76.214352,146.286056c-33.670818,142.987225 -235.809482,558.981087 -305.084915,628.029015c-17.062915,17.062915 -23.774328,14.901612 -86.565854,-27.98318c-142.077203,-97.031108 -297.577233,-146.399808 -492.663225,-156.75131c-72.346758,-3.753841 -156.75131,-3.071325 -187.692062,1.592539l-56.193866,8.417705l34.012077,27.186911c18.769206,14.901612 64.839076,43.453556 102.377488,63.36029c37.538412,19.792981 70.75422,39.699715 73.939297,44.02232c3.185077,4.322605 23.660575,16.949162 45.501106,27.98318c104.08378,52.553777 372.540305,216.244006 395.290858,240.928356c30.144483,32.760796 32.192032,71.209231 7.735188,143.214731c-33.443313,98.168636 -158.79886,184.961996 -306.791207,212.262659Zm-165.39652,991.92411c-7.962694,12.967815 -100.216186,15.811634 -524.741504,16.607904c-714.708622,1.137528 -919.349846,-6.483908 -995.677951,-37.197154c-135.934554,-54.71508 -236.719504,-133.659499 -309.407521,-242.407142c-192.469678,-287.453237 -128.085613,-626.550229 149.812391,-789.444188c165.510273,-96.917356 392.447039,-123.876761 594.699455,-70.412961c235.240718,61.995257 450.460949,199.408597 649.300782,414.173817l69.275434,74.849319l78.603161,-59.606449c110.68144,-83.94954 243.317164,-146.513561 340.348273,-160.505151c138.66462,-20.020487 139.119631,-19.906734 144.011,40.72349c4.208852,53.350047 -6.59766,109.543913 -47.093645,243.089659c-12.285299,40.72349 -48.686183,182.118177 -80.878216,314.185137c-32.192032,132.180713 -62.905279,247.412264 -68.251659,255.943721Zm1646.116261,4.891369c-12.967815,9.100221 -26.276889,15.24287 -29.575719,13.764085c-3.29883,-1.478786 -286.315709,-4.0951 -628.825284,-5.801391c-342.509575,-1.706291 -622.796388,-7.39393 -622.796388,-12.854062c0,-5.34638 19.565476,-22.6368 43.567309,-38.562187c139.688395,-92.367245 272.437872,-244.682197 349.448494,-400.750991c74.394308,-150.722413 107.268857,-285.860698 115.459056,-474.917793c3.753841,-85.99709 11.375276,-156.410052 17.062915,-156.410052c45.159848,0 330.79304,196.451025 451.939735,310.772554c28.551944,27.073158 64.952829,57.558899 80.764463,67.910401c27.641922,18.08669 30.713247,17.404173 79.626935,-15.697882c75.190578,-50.847486 190.422128,-107.723868 260.493832,-128.540624c79.513183,-23.546822 222.045397,-25.366867 213.286434,-2.616314c-3.29883,8.64521 -16.152893,48.344925 -28.551944,88.158393c-12.399051,39.813468 -33.784571,98.054883 -47.32115,129.336894c-13.650332,31.28201 -50.278722,126.038064 -81.333227,210.442615c-31.168258,84.404552 -65.976604,174.04173 -77.579386,199.067339c-11.489029,25.025608 -32.419538,80.309452 -46.524881,122.852986c-14.332848,43.112298 -36.059626,84.632057 -49.141194,93.846031Zm943.237927,230.463102c-13.536579,8.872716 -5643.615925,10.920265 -5705.269924,2.161303c-37.652165,-5.34638 -40.040973,-8.303952 -43.339803,-54.032563l-3.412583,-48.344925l5769.426483,0l-2.730066,46.183623c-1.478786,25.480619 -8.076446,49.823711 -14.674107,54.032563Zm-1317.825781,-1447.503933c-62.10901,42.202276 -106.927599,44.818589 -175.634269,10.237749c-174.838,-87.817135 -286.656968,-358.77622 -223.865441,-542.941947c40.837243,-120.12292 182.68694,-221.249128 326.24293,-232.738157c70.640467,-5.687638 73.029275,-5.005122 103.515016,31.168258c105.107555,125.014289 160.84641,373.791585 117.279101,523.71773c-20.703003,71.550489 -91.457223,172.449192 -147.537336,210.556368Zm-1909.112653,-1645.66125c-47.889914,16.721656 -53.122541,16.152893 -109.998924,-13.309073c-68.592917,-35.37711 -157.547579,-127.744355 -180.18438,-187.123298c-17.859184,-46.752386 -17.859184,-54.146316 -0.341258,-109.885171c25.821878,-81.788238 75.873094,-153.793738 161.756432,-232.396899c83.835788,-76.896869 197.702305,-138.66462 270.504075,-146.854819c98.054883,-11.147771 178.250583,62.336515 178.250583,163.007712c0,55.738855 -47.32115,171.994181 -95.779828,235.581976c-16.152893,21.158014 -29.348213,42.77104 -29.348213,48.11742c0,11.716535 -44.704837,78.944419 -110.340182,166.079037c-29.916977,39.699715 -62.222762,69.047928 -84.518304,76.783116Zm1230.918669,-10.579007c-53.122541,27.073158 -75.190578,28.210686 -116.141573,6.028897c-46.297375,-25.139361 -206.006257,-250.711094 -276.419219,-390.399489c-64.156559,-127.403097 -44.818589,-237.629526 49.141194,-280.059307c93.846031,-42.316029 209.760098,4.0951 358.77622,143.442237c191.900914,179.615616 216.81277,329.086749 76.1006,456.26234c-25.253114,22.864306 -66.317862,51.871261 -91.457223,64.725323Zm-1791.151036,-878.057592c-34.467088,66.772873 -44.136073,65.976604 -113.866518,-9.441479c-98.7374,-106.586341 -115.117798,-144.579764 -114.549034,-266.636481c0.568764,-115.345304 18.769206,-163.690229 93.163514,-245.933478c117.165348,-129.791905 323.626616,-148.333605 460.926203,-41.633512c58.810179,45.842364 109.657665,98.054883 110.453935,113.411507c0.227506,4.436358 -36.62839,35.832121 -82.015743,70.071703c-45.387353,34.125829 -106.700093,83.380777 -136.275812,109.43016c-55.96636,49.254947 -188.488331,213.968951 -217.836545,270.73158Zm2180.299245,-15.470376c-15.24287,18.314195 -39.358457,42.316029 -53.577552,53.577552l-25.93563,20.361745l-63.701548,-93.39102c-91.229717,-133.545746 -186.668287,-234.216943 -309.862532,-326.811694c-106.927599,-80.423205 -107.38261,-80.878216 -91.684729,-111.250204c38.448435,-74.394308 194.858486,-160.618904 292.003347,-161.187668c213.51394,-1.023775 395.063352,196.337272 362.87132,394.494589c-10.351502,63.587796 -59.606449,163.803981 -110.112676,224.2067Zm251.734869,4231.375349c-24.68435,9.555232 -2331.021658,8.872716 -2340.463138,-0.682517c-4.208852,-4.0951 -7.621435,-27.186911 -7.621435,-51.188744l0,-43.567309l2366.05751,0l0,44.249826c0,29.916977 -5.801391,46.524881 -17.972937,51.188744Zm-574.110204,229.55308c-11.602782,13.877837 -145.831045,16.266645 -914.685983,16.266645c-495.507044,0 -904.448234,-3.412583 -908.543333,-7.621435c-4.208852,-4.0951 -7.621435,-29.803224 -7.621435,-56.876382l0,-49.3687l1837.107153,5.801391l3.640088,37.765918c1.933797,20.703003 -2.502561,45.046095 -9.896491,54.032563Zm-78.375655,-1485.383604c-25.480619,74.963072 -46.866139,120.236672 -57.558899,121.829211c-19.906734,2.957572 -193.3797,-83.608282 -193.3797,-96.576097c0,-4.777616 21.044262,-36.742143 46.752386,-70.981725c65.635345,-87.134618 209.532593,-385.053109 240.359592,-497.213335c14.105343,-51.643755 31.737021,-93.846031 39.017198,-93.846031c14.105343,-0.113753 158.79886,73.939297 183.141951,93.732278c11.602782,9.327727 10.579007,17.745431 -5.118874,41.406006c-131.498196,198.384822 -188.82959,312.023834 -253.213655,501.649693Zm717.438688,-1481.51601c-7.507682,26.618147 -19.906734,48.11742 -27.528169,47.776161c-23.43307,-1.023775 -190.08087,-90.09219 -190.08087,-101.581219c0,-6.028897 25.139361,-48.231172 55.852608,-93.732278c75.759341,-112.387732 160.960162,-285.746945 210.783873,-429.189182c22.750553,-65.40784 42.884792,-120.577931 44.818589,-122.397975c8.64521,-8.64521 155.158771,66.886626 164.372745,84.74581c20.703003,39.92722 12.967815,60.288965 -72.915522,190.649634c-38.67594,58.696427 -160.84641,338.073217 -185.303254,423.729049Zm-1068.02471,2238.085649c-5.687638,18.769206 -17.517926,35.37711 -26.390641,36.969649c-20.930509,3.640088 -90.09219,-40.950995 -89.978437,-58.01391c0.113753,-27.073158 91.457223,-359.003726 130.133163,-473.211502c22.181789,-65.294087 40.382232,-127.971861 40.382232,-139.347137c0,-32.647044 38.562187,-24.798103 128.313119,26.049383c45.159848,25.594372 83.94954,48.344925 86.224596,50.506228c2.275055,2.275055 -11.830288,27.641922 -31.28201,56.421371c-19.451723,28.893202 -35.37711,55.283844 -35.37711,58.696427c0,3.412583 -10.010243,20.247992 -22.295542,37.42466c-36.400885,51.188744 -96.234839,171.994181 -124.331772,250.938599c-14.446601,40.72349 -30.485741,84.177046 -35.604615,96.68985c-5.232627,12.512804 -14.105343,38.107176 -19.792981,56.876382Zm-224.547958,-2554.545841c-43.567309,25.480619 -82.129496,46.297375 -85.769585,46.297375c-10.69276,0 -219.884095,-125.583052 -241.269614,-144.80727c-22.6368,-20.361745 -26.7319,-77.124375 -6.483908,-89.637179c7.39393,-4.550111 114.77654,-9.441479 238.653301,-10.69276c236.947009,-2.502561 255.829968,0.910022 264.930189,48.686183c5.915144,30.599494 -50.164969,80.081946 -170.060384,150.15365Zm2001.707404,661.13107c-15.584129,25.253114 -173.131708,1.820044 -310.545048,-46.06987c-113.070248,-39.472209 -197.019789,-87.703382 -265.840212,-152.769963l-48.913689,-46.297375l40.950995,-3.412583c81.219474,-6.825166 259.015046,39.244704 367.990194,95.324817c117.847864,60.630224 226.140497,137.41334 216.357759,153.224974Zm-901.263156,-117.279101c-142.077203,43.567309 -144.352259,43.794814 -134.000757,18.882959c18.996712,-45.501106 63.019032,-188.147073 63.019032,-204.07246c0,-9.100221 8.303952,-16.607904 18.541701,-16.607904c27.414416,0 197.588553,93.277267 197.588553,108.292632c0,28.210686 -61.653999,68.024153 -145.148528,93.504773Zm-781.936506,-1126.03862c88.272146,75.986847 208.395065,-45.387353 128.881883,-130.133163c-36.514638,-38.789693 -115.459056,-37.310907 -141.735945,2.730066c-28.096933,42.998545 -22.750553,96.803603 12.854062,127.403097Zm-920.828632,0c41.861017,36.742143 87.589629,33.32956 123.535503,-9.441479c36.969649,-43.908567 37.42466,-83.153271 1.592539,-119.099145c-61.540246,-61.426493 -176.544291,-13.764085 -161.073915,66.772873c3.753841,19.906734 20.020487,47.662408 35.945874,61.767751Zm1392.902606,1727.904499c0,8.076446 -18.200442,2.04755 -65.40784,-21.726778c-55.170091,-27.755675 -58.923932,-40.040973 -22.295542,-74.508061c25.139361,-23.546822 26.845653,-23.660575 43.794814,-3.867594c14.332848,16.721656 43.908567,84.177046 43.908567,100.102433Z" style="fill:#24444e;fill-rule:nonzero;"/><path d="M5079.865522,2514.537322c-37.948969,19.792229 -77.098172,36.560267 -116.052479,47.926932c-108.173651,31.564512 -274.953079,49.97662 -274.953079,49.97662c0,0 111.997388,-126.242096 207.920471,-179.953795c171.067188,-95.661713 495.473847,-152.36889 495.473847,-152.36889m13.284415,709.219379c0,0 -198.903178,2.090966 -356.771141,-52.927587c-129.901287,-45.347834 -226.347112,-100.758443 -305.411779,-175.510492l-56.194722,-53.188958l47.046744,-3.920562c93.309375,-7.841124 297.570655,45.086463 422.767268,109.514365c135.390074,69.655318 248.56363,176.033234 248.56363,176.033234Z" style="fill:#13ce66;fill-rule:nonzero;"/><path d="M1797.206164,777.461782c-4.208852,39.244704 -11.147771,73.598039 -15.470376,76.214352c-8.190199,5.005122 -510.636162,-236.15074 -557.843559,-267.774009c-25.821878,-17.176667 -16.380398,-21.954284 293.482133,-145.034775c175.975527,-69.95795 325.560413,-127.175591 332.271826,-127.175591c7.39393,0 9.782738,14.446601 5.915144,36.969649c-11.034018,65.976604 -50.392475,353.543593 -58.355168,426.800374Z" style="fill:#f56c6c;fill-rule:nonzero;"/><g transform="matrix(2450,0,0,2450,9409.05995,4988.439163)"></g><text x="6037.85995px" y="4988.439163px" style="font-family:'Du-Bold', 'Du', sans-serif;font-weight:700;font-size:2450px;fill:#24444e;">A<tspan x="7860.65995px " y="4988.439163px ">b</tspan></text></svg>